<svg version="1.1" id="Layer_1" xmlns="http://www.w3.org/2000/svg" xmlns:xlink="http://www.w3.org/1999/xlink" x="0px" y="0px"
	 width="100%" viewBox="130 350 760 285" xml:space="preserve">
<path fill="#5C2553" opacity="1.000000" stroke="none" fill-rule="evenodd" 
	d="
M280.232422,597.282959 
	C250.624481,619.293701 214.702332,616.599182 188.795685,590.658813 
	C158.209869,560.033203 154.965317,504.832520 181.831039,470.909668 
	C188.668915,462.275574 196.991302,455.539764 207.492767,451.697235 
	C213.943008,449.337097 220.689804,448.742920 227.177490,450.122101 
	C234.720261,451.725555 241.820160,451.267059 249.335159,449.959778 
	C266.824432,446.917236 280.677856,454.523346 291.600098,467.346527 
	C309.264771,488.085541 314.788025,512.558960 311.653473,539.235229 
	C308.909149,562.590576 298.761078,582.026550 280.232422,597.282959 
M209.151825,467.767670 
	C190.460205,477.158051 175.600113,509.913300 185.687454,523.331421 
	C190.511826,502.255615 200.524918,484.903595 213.735413,469.315247 
	C214.241257,468.718384 214.518616,467.842133 213.956268,466.910950 
	C212.469620,465.912384 211.201202,467.278534 209.151825,467.767670 
z"/>
<path fill="#252535" opacity="1.000000" stroke="none" 
	d="
M541.721069,524.343567 
	C540.218262,515.031982 541.112000,506.041901 540.925171,497.073364 
	C540.758728,489.084625 540.980408,481.088257 540.862305,473.097778 
	C540.808960,469.489777 542.322388,467.895233 545.899292,467.981964 
	C549.060486,468.058563 552.228943,468.043152 555.388428,467.920532 
	C558.412903,467.803192 560.708374,468.510345 560.802673,472.799805 
	C567.005920,468.847870 573.089417,466.592072 580.019775,467.379089 
	C584.974854,467.941742 589.461121,469.456055 593.176086,472.786285 
	C595.146912,474.552979 596.610718,474.582611 598.736206,472.860626 
	C605.255737,467.578552 612.944519,466.588989 620.935730,467.869598 
	C630.921509,469.469788 637.919861,478.078705 638.224304,489.378632 
	C638.506775,499.860992 638.207703,510.357849 638.348816,520.845825 
	C638.396790,524.412354 636.827881,525.528687 633.524231,525.385193 
	C630.034363,525.233704 626.521667,525.188477 623.038818,525.409485 
	C619.190613,525.653748 617.658325,524.208923 617.749756,520.261658 
	C617.938599,512.107544 617.840820,503.944855 617.754272,495.786865 
	C617.677246,488.526733 615.332031,485.467194 609.931763,485.272675 
	C604.252136,485.068115 600.459412,488.692108 600.158386,495.503571 
	C599.805786,503.479675 599.837708,511.486450 600.068970,519.469299 
	C600.200684,524.016052 598.627625,525.502197 594.009094,525.447021 
	C579.688171,525.276123 579.690491,525.453613 579.671143,510.907379 
	C579.664246,505.745789 579.792725,500.577118 579.567017,495.424469 
	C579.288391,489.061859 576.681519,485.796417 571.993164,485.358643 
	C566.806335,484.874268 562.924561,487.944641 561.901917,494.217499 
	C560.557861,502.462006 561.315613,510.833527 561.463074,519.135010 
	C561.546021,523.806152 560.361511,525.983093 555.384521,525.399597 
	C550.953918,524.880188 546.415710,526.056519 541.721069,524.343567 
z"/>
<path fill="#252535" opacity="1.000000" stroke="none" 
	d="
M380.307861,519.890320 
	C380.672638,523.886963 379.402740,525.642822 375.562561,525.424194 
	C371.412811,525.187927 367.237976,525.290161 363.077179,525.383362 
	C360.205292,525.447693 358.795776,524.399109 358.805237,521.337280 
	C358.872528,499.523254 358.857513,477.708954 358.880219,455.894775 
	C358.882446,453.769318 359.168976,451.692261 361.981049,451.763885 
	C375.772461,452.115082 389.650360,450.361816 403.345581,452.782013 
	C417.593414,455.299835 425.643951,465.204742 425.543884,479.229553 
	C425.445618,493.006195 416.953918,502.629303 402.810760,505.383362 
	C397.013306,506.512268 391.203430,506.428772 385.400330,506.226837 
	C381.431549,506.088715 379.944458,507.512817 380.283783,511.417114 
	C380.513580,514.060913 380.315948,516.741821 380.307861,519.890320 
M403.534210,476.242554 
	C401.592224,469.481415 396.139862,468.955322 390.457184,468.944702 
	C378.254791,468.921875 380.529694,467.287964 380.375244,478.599915 
	C380.209595,490.731323 380.327881,490.733398 392.522095,489.576843 
	C400.874512,488.784637 403.832275,485.444489 403.534210,476.242554 
z"/>
<path fill="#252535" opacity="1.000000" stroke="none" 
	d="
M517.094788,525.369263 
	C513.314392,524.785828 508.384735,527.492737 508.138916,520.532715 
	C503.269409,524.499634 498.119659,526.361938 492.234985,526.395752 
	C477.989716,526.477478 468.433075,517.899109 467.829834,503.591675 
	C467.395020,493.279602 467.788513,482.934601 467.667847,472.605957 
	C467.632935,469.618896 468.932556,468.571533 471.742493,468.213806 
	C487.469055,466.211731 488.256256,466.910706 488.389221,482.449097 
	C488.444641,488.924988 487.804138,495.432373 489.199860,501.876984 
	C489.990814,505.529236 491.855164,508.061615 495.624329,508.545166 
	C499.689453,509.066681 503.330933,507.986511 505.442352,504.130005 
	C507.062988,501.169891 507.665558,497.905273 507.638214,494.498840 
	C507.580811,487.334900 507.781281,480.165619 507.570190,473.007538 
	C507.459351,469.250397 509.057709,467.974701 512.562561,468.003021 
	C531.207336,468.153656 527.782471,465.818268 528.044373,482.557922 
	C528.234619,494.717926 527.864685,506.889435 528.200745,519.043213 
	C528.343811,524.216003 526.511475,526.072571 521.565613,525.399658 
	C520.256714,525.221619 518.903320,525.370972 517.094788,525.369263 
z"/>
<path fill="#252535" opacity="1.000000" stroke="none" 
	d="
M780.093811,516.916870 
	C780.023621,525.357483 780.023621,525.357544 772.153870,525.360596 
	C759.647217,525.365479 759.732178,525.364502 759.597778,512.594849 
	C759.529541,506.115051 760.115723,499.621368 759.023132,493.149261 
	C758.216309,488.370270 755.757629,485.638153 750.828186,485.345734 
	C745.723877,485.042938 742.034973,487.443085 740.399841,492.129486 
	C739.164917,495.668854 739.320862,499.343414 739.327820,503.008026 
	C739.339539,509.171814 739.256653,515.336426 739.338379,521.499084 
	C739.374817,524.249023 738.248779,525.427856 735.489380,525.363342 
	C731.326965,525.265991 727.159119,525.265686 722.996460,525.356323 
	C720.056091,525.420227 718.794250,524.189087 718.802734,521.201721 
	C718.849426,504.875946 718.835815,488.549744 718.763367,472.224091 
	C718.750122,469.231720 720.118042,467.965485 722.967712,467.965790 
	C726.132751,467.966125 729.299438,468.006989 732.462463,467.921661 
	C735.929749,467.828186 739.053040,468.076172 738.390564,473.493500 
	C743.383118,470.412262 747.707703,467.997650 752.840271,467.672180 
	C770.294495,466.565277 779.663330,475.144531 780.097656,492.941711 
	C780.288635,500.766571 780.107117,508.600494 780.093811,516.916870 
z"/>
<path fill="#252535" opacity="1.000000" stroke="none" 
	d="
M844.873413,502.363220 
	C833.158875,502.363464 821.932312,502.363464 810.250793,502.363464 
	C811.472351,507.317627 814.395447,509.030151 817.931152,509.661621 
	C823.120911,510.588501 828.324158,510.436096 832.809998,507.227264 
	C835.235535,505.492188 836.948608,505.688507 838.728821,507.959534 
	C839.751953,509.264832 840.977234,510.413635 842.130310,511.614777 
	C846.703857,516.378540 846.624390,517.306702 841.294128,521.053467 
	C828.054321,530.359924 804.562317,527.524170 795.110840,515.478577 
	C787.647034,505.966095 786.376282,492.298187 792.439270,482.147308 
	C799.206909,470.816681 809.918396,466.295959 822.536926,467.298035 
	C840.485657,468.723389 850.859985,480.592834 850.399109,497.550659 
	C850.299133,501.229279 849.000061,502.804382 844.873413,502.363220 
M810.102722,490.491760 
	C816.701965,493.070740 823.217468,490.919128 830.181946,490.903076 
	C828.917236,485.545258 825.803833,483.600677 821.484131,483.201508 
	C816.139893,482.707703 812.013916,484.421814 810.102722,490.491760 
z"/>
<path fill="#252535" opacity="1.000000" stroke="none" 
	d="
M434.678284,462.008057 
	C434.705322,447.772583 434.705322,447.772552 448.292603,447.778351 
	C455.283936,447.781342 455.305511,447.781372 455.308563,454.567505 
	C455.318329,476.192719 455.213409,497.818756 455.389435,519.442505 
	C455.425751,523.902466 454.179779,525.515930 449.491394,525.471558 
	C434.734619,525.331604 434.737701,525.512634 434.727448,510.913330 
	C434.716125,494.777557 434.694855,478.641815 434.678284,462.008057 
z"/>
<path fill="#252535" opacity="1.000000" stroke="none" 
	d="
M651.633423,500.999878 
	C651.634583,485.028076 651.777100,469.554169 651.550293,454.085724 
	C651.482544,449.467743 652.681763,447.636566 657.647339,447.671936 
	C672.116638,447.775055 672.123779,447.578003 672.121582,462.153748 
	C672.118774,481.119110 671.992065,500.085602 672.177917,519.049072 
	C672.223389,523.688782 670.954590,525.498840 666.004395,525.453735 
	C651.644348,525.322876 651.642517,525.518494 651.636597,510.982666 
	C651.635315,507.821747 651.634460,504.660797 651.633423,500.999878 
z"/>
<path fill="#252535" opacity="1.000000" stroke="none" 
	d="
M692.087280,525.352783 
	C687.147278,525.951843 685.472046,524.251282 685.553589,519.547119 
	C685.819092,504.240814 685.769775,488.925964 685.597656,473.617126 
	C685.552124,469.566345 686.839355,467.933807 690.987610,467.995270 
	C708.989990,468.262024 705.771240,465.998169 706.035767,482.538605 
	C706.232666,494.850677 705.925781,507.171082 706.145935,519.482361 
	C706.227844,524.061218 704.638306,525.896973 700.056458,525.396423 
	C697.589722,525.127014 695.069031,525.351074 692.087280,525.352783 
z"/>
<path fill="#252535" opacity="1.000000" stroke="none" 
	d="
M233.880569,391.000000 
	C233.891190,383.833527 233.981339,377.165863 233.878311,370.501129 
	C233.828201,367.259979 234.759979,365.576477 238.412872,365.629333 
	C242.047012,365.681885 242.356735,367.703888 242.352036,370.494751 
	C242.312469,393.994110 242.314804,417.493561 242.331573,440.992981 
	C242.333374,443.513275 242.227829,445.710480 238.770370,445.639771 
	C235.617310,445.575256 233.853043,444.615265 233.874664,440.998322 
	C233.973328,424.499451 233.895203,407.999542 233.880569,391.000000 
z"/>
<path fill="#252535" opacity="1.000000" stroke="none" 
	d="
M699.073486,462.336884 
	C690.379211,463.564606 684.238098,459.807281 683.698730,453.238251 
	C683.228333,447.509125 686.877319,442.778381 692.525757,441.794312 
	C700.017029,440.489227 705.868835,443.311615 707.604065,449.066772 
	C709.369019,454.920715 706.614929,459.383545 699.073486,462.336884 
z"/>
<path fill="#6E6E80" opacity="1.000000" stroke="none" 
	d="
M359.884888,554.587158 
	C362.541260,551.419861 364.059662,553.601440 365.534546,555.400330 
	C369.947998,560.783630 374.300110,566.217285 379.697815,572.895203 
	C379.697815,566.705322 379.657684,561.980164 379.718628,557.256165 
	C379.741364,555.495972 379.374573,553.234253 382.029144,553.054993 
	C384.650818,552.877869 384.845306,555.082520 384.864319,556.874329 
	C384.938416,563.860840 384.918579,570.850220 384.780884,577.835510 
	C384.750214,579.390381 384.799835,581.417236 382.624512,581.847961 
	C380.719025,582.225342 379.560486,580.856934 378.513916,579.533936 
	C374.315674,574.226440 370.138062,568.902649 365.952820,563.584900 
	C365.430206,563.715393 364.907593,563.845886 364.384979,563.976318 
	C364.384979,568.321533 364.478485,572.669678 364.340118,577.010498 
	C364.282684,578.812988 365.198578,581.646057 362.275787,581.801208 
	C358.884125,581.981140 359.726196,578.939941 359.709717,576.976257 
	C359.648315,569.656555 359.742188,562.335510 359.884888,554.587158 
z"/>
<path fill="#6E6E80" opacity="1.000000" stroke="none" 
	d="
M755.742065,565.628540 
	C759.414062,577.708923 752.875427,584.025696 739.971069,581.286316 
	C738.630005,583.022400 739.525574,585.112244 739.162048,587.003052 
	C738.918762,588.268433 738.463135,589.210022 737.016602,589.310913 
	C735.459839,589.419495 734.250977,588.794434 734.172546,587.209595 
	C733.752930,578.733032 733.599304,570.249512 734.125000,561.770630 
	C734.192993,560.674316 735.167236,559.534241 736.048767,559.912231 
	C740.012939,561.612244 743.817810,559.047485 747.698730,559.747620 
	C751.185791,560.376587 753.865784,562.116882 755.742065,565.628540 
M748.454102,577.071716 
	C751.997864,573.922302 753.037659,569.760559 750.843079,566.725830 
	C749.041138,564.234131 746.534851,563.048645 743.503357,564.254700 
	C739.611267,565.803284 738.632385,569.118469 739.426208,572.792603 
	C740.385132,577.230469 743.626648,578.306824 748.454102,577.071716 
z"/>
<path fill="#6E6E80" opacity="1.000000" stroke="none" 
	d="
M504.334076,582.223694 
	C502.361053,581.788818 500.787964,581.381470 499.235962,580.979492 
	C497.780212,582.956970 498.618591,585.023987 498.351410,586.931458 
	C498.177277,588.174744 497.926544,589.253479 496.395386,589.313904 
	C494.781952,589.377625 493.827209,588.567749 493.817627,586.970825 
	C493.767609,578.666260 493.757080,570.361328 493.777924,562.056641 
	C493.781281,560.717285 494.763275,559.434509 495.915955,559.974609 
	C498.942169,561.392639 501.675110,559.865723 504.533936,559.704224 
	C511.046661,559.336243 515.811829,563.493835 516.299866,569.875183 
	C516.875488,577.401917 512.992310,581.557068 504.334076,582.223694 
M500.597137,575.953430 
	C503.841095,578.645508 507.098114,578.501343 509.838867,575.430481 
	C512.569458,572.370972 512.277954,568.898193 509.567444,565.983826 
	C507.339172,563.587830 504.545258,562.876465 501.514069,564.936279 
	C498.084747,567.266663 497.583557,570.706604 500.597137,575.953430 
z"/>
<path fill="#6E6E80" opacity="1.000000" stroke="none" 
	d="
M828.186462,576.292969 
	C831.881226,576.256714 832.524292,577.867920 830.209656,580.040344 
	C825.946228,584.041809 816.749268,582.638306 813.229431,577.696655 
	C809.289612,572.165405 810.653564,564.530701 816.193542,561.104797 
	C821.644775,557.733765 829.224915,559.672546 832.196167,565.197815 
	C835.036438,570.479553 833.700623,572.810120 827.794373,572.956177 
	C824.234253,573.044189 820.614624,572.567749 816.988403,573.610352 
	C819.428345,578.207703 821.846680,578.767029 828.186462,576.292969 
M827.331665,567.603760 
	C826.961121,564.389465 824.452576,563.655273 822.004028,563.752380 
	C819.589783,563.848083 817.282898,564.905884 816.661499,568.181885 
	C820.261108,568.997192 823.584900,569.096313 827.331665,567.603760 
z"/>
<path fill="#6E6E80" opacity="1.000000" stroke="none" 
	d="
M582.395386,581.902954 
	C571.196960,582.674683 564.749146,574.771057 568.863647,565.919128 
	C570.973267,561.380493 575.417175,559.077881 580.799194,559.734924 
	C585.618408,560.323242 589.180237,563.958862 590.042603,568.874756 
	C590.583008,571.955750 588.832520,572.630981 586.410034,572.884216 
	C582.341431,573.309570 578.179626,572.569153 573.735657,573.707153 
	C575.456604,577.901917 578.609009,577.897217 581.973145,577.526489 
	C583.964966,577.306946 586.778870,574.204041 587.708069,577.927185 
	C588.409912,580.739685 584.807007,580.882751 582.395386,581.902954 
M580.681030,564.069580 
	C577.232178,563.316956 574.853760,564.400024 573.473267,568.218506 
	C577.474792,568.753540 581.003845,569.461548 584.428162,567.795410 
	C584.094666,565.495544 582.557739,565.068054 580.681030,564.069580 
z"/>
<path fill="#6E6E80" opacity="1.000000" stroke="none" 
	d="
M391.475525,564.766113 
	C396.115295,559.503113 402.148315,558.149658 407.225372,560.940491 
	C411.337036,563.200684 413.717499,568.651733 412.602722,573.254211 
	C410.901855,580.276428 404.578033,583.809631 397.756165,581.549255 
	C390.642944,579.192261 388.203461,573.007446 391.475525,564.766113 
M407.243286,567.511658 
	C404.736450,563.982117 401.448456,562.895020 397.765747,565.281433 
	C394.776245,567.218628 394.040070,570.386292 395.384644,573.675232 
	C396.784637,577.099792 399.721649,578.352722 403.147156,577.469360 
	C407.322876,576.392517 408.181366,573.071594 407.721252,569.216187 
	C407.681915,568.886597 407.597382,568.562439 407.243286,567.511658 
z"/>
<path fill="#6E6E80" opacity="1.000000" stroke="none" 
	d="
M449.267212,562.497253 
	C449.631317,560.574158 450.348328,559.606995 452.051056,559.912537 
	C453.726440,560.213257 454.053833,561.541687 454.103546,562.896362 
	C454.213165,565.884338 454.220917,568.876770 454.234070,571.867432 
	C454.247467,574.906494 455.495331,577.098816 458.629547,577.576721 
	C461.954559,578.083801 463.958344,576.269409 464.974792,573.237244 
	C466.059143,570.002441 465.417175,566.635803 465.679932,563.337646 
	C465.794769,561.895874 465.558380,560.082153 467.712097,559.975525 
	C470.116669,559.856506 470.222076,561.717468 470.237823,563.415100 
	C470.284027,568.400146 470.280365,573.385986 470.253998,578.371216 
	C470.246063,579.875000 469.886658,582.334167 468.346344,581.730835 
	C464.418182,580.192017 460.931824,582.731567 457.253082,582.141846 
	C453.064941,581.470398 450.356781,579.231445 449.520111,574.861267 
	C448.758667,570.883911 449.138641,566.913330 449.267212,562.497253 
z"/>
<path fill="#6E6E80" opacity="1.000000" stroke="none" 
	d="
M844.012146,573.068726 
	C842.351440,572.625793 841.023865,572.375854 839.799927,571.873596 
	C837.669434,570.999329 836.154541,569.449463 835.902344,567.079102 
	C835.630310,564.521790 836.796692,562.410034 838.909790,561.162048 
	C842.752747,558.892334 846.876770,559.217651 850.966125,560.558411 
	C852.163757,560.951172 853.105530,561.713074 852.678406,563.142090 
	C852.226990,564.652588 851.176697,565.272949 849.589600,564.702942 
	C849.120239,564.534424 848.640808,564.383240 848.154907,564.272949 
	C845.692444,563.714233 842.362915,562.847473 841.764099,565.905151 
	C841.112427,569.232971 844.897278,568.407593 846.906921,569.000061 
	C850.589844,570.085632 854.344299,571.383179 853.897705,576.042603 
	C853.473328,580.470093 849.771118,581.700867 845.918335,582.188538 
	C843.387512,582.508789 840.921082,582.044861 838.568542,581.133545 
	C837.190247,580.599487 835.482666,579.957275 836.059143,578.022766 
	C836.638611,576.078186 838.315063,576.494324 839.821289,576.858398 
	C841.106812,577.169128 842.396179,577.634216 843.695374,577.676453 
	C845.442627,577.733215 847.937561,578.236328 848.294434,575.894470 
	C848.685913,573.324890 846.055725,573.601624 844.012146,573.068726 
z"/>
<path fill="#6E6E80" opacity="1.000000" stroke="none" 
	d="
M563.083313,580.113586 
	C558.912415,582.622559 554.883606,582.741882 550.730286,581.371887 
	C549.013794,580.805664 546.686951,580.455139 547.452087,577.959412 
	C548.133240,575.737610 550.079956,576.764526 551.701904,577.098633 
	C554.651245,577.706238 557.797974,578.904541 560.148315,575.546143 
	C558.312439,572.705505 555.243164,573.422424 552.856934,572.568054 
	C549.564392,571.389282 546.994263,569.721802 547.418884,565.888794 
	C547.844055,562.051025 550.503906,560.075806 554.205261,559.741150 
	C556.338074,559.548340 558.558899,559.610535 560.657654,560.000916 
	C562.149353,560.278381 564.326660,560.717651 563.874756,563.002625 
	C563.424072,565.281494 561.610413,564.783203 559.871155,564.454956 
	C557.204041,563.951599 554.315186,563.091675 552.460632,566.198975 
	C554.079712,569.513062 557.252441,568.557556 559.619568,569.359192 
	C565.529724,571.360413 566.723816,574.431885 563.083313,580.113586 
z"/>
<path fill="#6E6E80" opacity="1.000000" stroke="none" 
	d="
M662.208496,564.292114 
	C662.231384,567.066101 662.259094,569.391235 662.253723,571.716248 
	C662.246155,574.976440 663.597168,577.250244 667.009644,577.596741 
	C670.352783,577.936096 672.530701,575.970093 673.156250,572.959839 
	C673.755066,570.078308 673.485474,567.024048 673.712646,564.054565 
	C673.840881,562.377991 673.182556,559.966492 676.048279,560.023499 
	C678.424255,560.070740 678.257080,562.144165 678.276672,563.749451 
	C678.337463,568.731018 678.305969,573.713867 678.278198,578.696106 
	C678.269531,580.245911 677.686401,582.590088 676.160095,581.821350 
	C672.650146,580.053650 669.718994,582.305725 666.531982,582.248291 
	C661.493530,582.157410 658.104675,579.114319 657.724609,573.964661 
	C657.480530,570.657776 657.460693,567.320496 657.586670,564.006165 
	C657.645874,562.448120 656.523987,559.895935 659.568298,559.854553 
	C662.196289,559.818787 662.007019,562.050537 662.208496,564.292114 
z"/>
<path fill="#6E6E80" opacity="1.000000" stroke="none" 
	d="
M431.252716,572.059875 
	C428.254608,570.350769 426.414124,568.300720 427.385376,565.002441 
	C428.402618,561.547974 431.034485,559.941467 434.476837,559.730164 
	C436.945099,559.578735 439.470032,559.337402 441.833282,560.471313 
	C442.910095,560.988037 444.058594,561.515503 443.665527,562.996826 
	C443.268402,564.493408 442.256439,565.132751 440.647217,564.784119 
	C439.193787,564.469299 437.717957,564.122314 436.243378,564.078125 
	C434.760162,564.033691 432.957367,564.175598 432.677948,566.035400 
	C432.380707,568.013611 434.128448,568.300537 435.600983,568.689636 
	C437.677582,569.238403 439.894745,569.554810 441.764313,570.524719 
	C445.597321,572.513245 446.130035,576.688721 443.197327,579.668457 
	C440.190613,582.723389 431.513733,583.184265 428.171021,580.509888 
	C427.296936,579.810608 426.775848,579.056763 427.289154,577.972412 
	C428.001831,576.466919 429.281281,576.389160 430.677765,576.808350 
	C433.671997,577.707214 436.672302,578.765015 439.663544,576.073303 
	C438.072266,572.208740 434.089874,573.715759 431.252716,572.059875 
z"/>
<path fill="#6E6E80" opacity="1.000000" stroke="none" 
	d="
M594.683960,580.948120 
	C593.145447,580.097961 591.900146,579.331543 592.809509,577.698669 
	C593.638489,576.210266 595.025391,576.594910 596.350342,576.954102 
	C599.359436,577.769958 602.407288,578.808777 605.241394,575.864624 
	C603.815186,572.760681 600.722595,573.272034 598.410217,572.543030 
	C595.333191,571.572937 592.633911,570.461426 592.741150,566.682190 
	C592.852783,562.745850 595.356262,560.666321 598.929321,559.915955 
	C601.366272,559.404114 603.922180,559.373230 606.344727,560.141479 
	C607.861450,560.622375 609.894470,561.010193 609.096191,563.406250 
	C608.446594,565.356079 606.926758,564.826294 605.366028,564.571777 
	C602.729553,564.141968 599.799927,563.045837 597.868652,566.190979 
	C599.183105,569.288208 602.164795,568.611023 604.373718,569.319946 
	C607.819702,570.425903 610.675110,571.798035 610.304565,576.061951 
	C609.941528,580.239319 606.759216,581.336670 603.376160,582.053955 
	C600.508728,582.661987 597.763489,581.850891 594.683960,580.948120 
z"/>
<path fill="#6E6E80" opacity="1.000000" stroke="none" 
	d="
M700.085938,572.976440 
	C701.115112,578.642395 698.907410,581.377747 693.075867,582.166321 
	C690.381226,582.530701 687.770874,582.084839 685.253784,581.126465 
	C683.998352,580.648438 682.594055,580.024719 683.145447,578.325562 
	C683.664124,576.727295 685.057129,576.804993 686.469482,577.098755 
	C689.471436,577.723206 692.558594,578.800537 695.340271,576.062622 
	C694.297852,573.060059 691.601501,573.528748 689.545715,572.901855 
	C686.230469,571.890930 683.020447,570.617920 682.910645,566.539490 
	C682.825195,563.362488 684.849854,561.241089 687.795837,560.346069 
	C691.542053,559.207947 695.345215,559.053528 698.789856,561.357605 
	C699.680725,561.953491 699.777039,563.097168 699.112305,564.032959 
	C698.307983,565.165222 697.202087,564.969055 695.978638,564.727844 
	C693.156494,564.171570 690.124878,562.995605 687.864136,566.495178 
	C691.022278,570.439697 697.202393,568.254517 700.085938,572.976440 
z"/>
<path fill="#6E6E80" opacity="1.000000" stroke="none" 
	d="
M637.516968,557.240784 
	C634.253479,555.054565 635.289612,553.453674 638.091553,553.081116 
	C641.190369,552.669006 644.394836,552.967896 647.548706,553.082520 
	C649.665283,553.159424 650.302917,554.623474 650.291138,556.508850 
	C650.253784,562.495178 650.393311,568.489807 650.112244,574.464722 
	C649.944702,578.024475 648.126160,580.798218 644.415588,581.831177 
	C640.617310,582.888489 637.167358,582.095337 634.118042,579.647156 
	C633.156799,578.875488 632.593140,577.857483 633.372864,576.596619 
	C634.135498,575.363464 635.166077,575.453552 636.411011,575.830933 
	C644.024719,578.138794 645.072937,577.395691 645.542419,569.432068 
	C645.630432,567.939514 645.608521,566.439270 645.605286,564.942688 
	C645.588806,557.473694 645.585022,557.473694 637.516968,557.240784 
z"/>
<path fill="#6E6E80" opacity="1.000000" stroke="none" 
	d="
M808.204102,565.289673 
	C806.180603,567.064575 804.736877,565.979248 803.053955,565.064636 
	C800.180359,563.502930 797.172058,563.446960 794.890015,566.139709 
	C792.630798,568.805420 792.242249,572.059387 794.191284,574.949524 
	C796.209900,577.942993 799.311035,578.407227 802.621277,576.958008 
	C803.228149,576.692322 803.769409,576.279846 804.367920,575.990967 
	C805.720886,575.337769 807.057068,575.418640 807.928467,576.693298 
	C808.980408,578.232117 807.664917,579.149841 806.683167,580.003601 
	C803.438660,582.825073 797.654663,583.059937 793.533264,580.450867 
	C789.312195,577.778687 787.516724,573.813293 788.252502,568.924194 
	C788.997925,563.970947 792.755493,560.447876 797.552124,559.759277 
	C802.905518,558.990784 806.607849,560.783264 808.204102,565.289673 
z"/>
<path fill="#6E6E80" opacity="1.000000" stroke="none" 
	d="
M710.409546,557.498901 
	C710.663940,558.161133 710.765747,558.612305 711.006042,558.705261 
	C715.396484,560.403015 721.199463,561.401123 711.546021,564.975342 
	C708.659729,566.044067 710.524048,571.393555 710.555664,574.769958 
	C710.579102,577.276245 712.578430,577.908936 714.824585,577.815308 
	C716.119080,577.761292 717.190247,578.244812 717.301147,579.670166 
	C717.439270,581.444763 715.990540,581.771790 714.700439,582.094421 
	C710.227844,583.213074 706.265442,580.538452 705.793518,575.929199 
	C705.557983,573.628601 705.725830,571.287903 705.684326,568.965820 
	C705.666626,567.973877 705.786377,566.915527 705.487000,566.004517 
	C704.549438,563.150940 704.573792,558.648621 705.889587,556.629395 
	C707.609314,553.990479 709.161743,554.092529 710.409546,557.498901 
z"/>
<path fill="#6E6E80" opacity="1.000000" stroke="none" 
	d="
M526.116882,579.519348 
	C525.642822,581.458740 524.716125,582.235962 523.119934,581.870422 
	C521.769775,581.561279 521.235596,580.452087 521.223022,579.253906 
	C521.165527,573.770386 521.145447,568.284546 521.258972,562.802612 
	C521.285217,561.539185 521.711914,559.577148 523.340820,559.977295 
	C526.000366,560.630676 528.445068,560.354187 531.005615,559.799255 
	C532.004272,559.582947 533.005859,560.015198 533.264099,561.233948 
	C533.485474,562.279175 533.367798,563.558228 532.304810,563.784546 
	C524.991943,565.341919 526.376160,571.068542 526.247375,576.090271 
	C526.221802,577.088013 526.198425,578.085754 526.116882,579.519348 
z"/>
<path fill="#6E6E80" opacity="1.000000" stroke="none" 
	d="
M488.536133,563.315002 
	C483.368561,564.740540 481.674133,568.023071 481.964111,572.787354 
	C482.094330,574.926758 481.992401,577.091492 481.835693,579.233032 
	C481.734406,580.617432 481.151611,581.905273 479.482697,581.923767 
	C477.889465,581.941467 477.005371,580.866333 476.982941,579.396240 
	C476.897095,573.770447 476.878448,568.142212 476.945129,562.516174 
	C476.969604,560.451416 479.004150,558.872925 480.114197,560.072571 
	C482.658752,562.822449 488.239349,555.635803 488.536133,563.315002 
z"/>
<path fill="#6E6E80" opacity="1.000000" stroke="none" 
	d="
M769.258179,565.264893 
	C765.541077,568.864441 766.702759,573.218994 766.380249,577.280273 
	C766.238159,579.070068 767.120300,581.904602 764.011047,581.778687 
	C761.105774,581.660950 761.787964,578.938232 761.748047,577.085876 
	C761.651184,572.596313 761.695435,568.102722 761.746155,563.611450 
	C761.762634,562.151917 761.776611,559.738647 763.515381,560.135925 
	C766.520569,560.822388 769.228027,560.385193 772.073425,559.833801 
	C772.890137,559.675537 773.683167,560.184265 773.914185,561.149292 
	C774.128052,562.042542 773.882202,562.902954 773.144653,563.349731 
	C772.023376,564.028992 770.774536,564.497742 769.258179,565.264893 
z"/>
<path fill="#6E6E80" opacity="1.000000" stroke="none" 
	d="
M542.220459,580.864624 
	C538.832275,582.735596 538.076233,580.675354 537.987122,578.285828 
	C537.801514,573.306458 537.824951,568.318359 537.815125,563.333801 
	C537.812134,561.813782 537.925903,560.172302 539.933777,559.965515 
	C542.198120,559.732300 542.851746,561.445190 542.896484,563.146179 
	C543.049011,568.940430 543.577271,574.755554 542.220459,580.864624 
z"/>
<path fill="#6E6E80" opacity="1.000000" stroke="none" 
	d="
M781.900635,581.678467 
	C779.223694,581.848450 778.757935,580.348083 778.748840,578.518372 
	C778.724060,573.535706 778.693298,568.552673 778.732361,563.570312 
	C778.745422,561.903259 778.758240,559.976807 781.180603,560.069336 
	C783.242981,560.148010 783.391357,561.879211 783.303711,563.370239 
	C782.947998,569.420044 784.444885,575.573975 781.900635,581.678467 
z"/>
<path fill="#6E6E80" opacity="1.000000" stroke="none" 
	d="
M618.314697,581.072998 
	C615.369751,582.635376 613.764099,581.566040 613.421387,578.891113 
	C613.171692,576.942261 614.454529,575.549866 616.453735,575.913086 
	C619.255554,576.422180 619.732666,578.351257 618.314697,581.072998 
z"/>
<path fill="#6E6E80" opacity="1.000000" stroke="none" 
	d="
M861.261597,576.371826 
	C863.407532,578.755737 863.049805,580.667725 860.519958,581.725586 
	C858.604919,582.526550 857.157104,581.188904 856.950989,579.388184 
	C856.629700,576.580872 858.196045,575.480896 861.261597,576.371826 
z"/>
<path fill="#6E6E80" opacity="1.000000" stroke="none" 
	d="
M542.650757,551.798462 
	C543.916321,554.702332 543.130920,556.297485 540.182129,556.343628 
	C538.350769,556.372192 537.313904,555.102051 537.637634,553.428650 
	C538.186035,550.594360 540.014648,550.138367 542.650757,551.798462 
z"/>
<path fill="#6E6E80" opacity="1.000000" stroke="none" 
	d="
M781.071899,550.893921 
	C783.782532,551.628601 784.947998,553.021362 783.217407,555.207764 
	C782.064087,556.664795 780.176147,556.888855 778.954407,555.354553 
	C777.242371,553.204590 778.447266,551.758423 781.071899,550.893921 
z"/>
</svg>